<?xml version="1.0" encoding="UTF-8"?>
<svg xmlns="http://www.w3.org/2000/svg" xmlns:xlink="http://www.w3.org/1999/xlink" viewBox="0 0 200 200">
  <defs>
    <style>
      .cls-1 {
        fill: #40582a;
      }

      .cls-2 {
        fill: #5e843b;
      }

      .cls-3 {
        fill: #494d53;
      }

      .cls-4 {
        fill: #54575d;
      }

      .cls-5 {
        fill: #bfbfc1;
      }

      .cls-6 {
        fill: #787673;
      }

      .cls-7 {
        fill: #4e7134;
      }

      .cls-8 {
        fill: #49858d;
      }

      .cls-9 {
        fill: #777eb8;
      }

      .cls-10 {
        fill: #9a9894;
      }

      .cls-11 {
        fill: #c1c1c3;
      }

      .cls-12 {
        fill: #6eafba;
      }

      .cls-13 {
        fill: #5c5955;
      }

      .cls-14 {
        fill: #7fb6c0;
      }

      .cls-15 {
        fill: #33312d;
      }

      .cls-16 {
        fill: #828182;
      }

      .cls-17 {
        fill: #252320;
      }

      .cls-18 {
        fill: #3e4043;
      }

      .cls-19 {
        fill: #6d6a65;
      }

      .cls-20 {
        fill: #6f9258;
      }

      .cls-21 {
        fill: #4f5698;
      }

      .cls-22 {
        fill: #6870b0;
      }

      .cls-23 {
        clip-path: url(#clippath);
      }

      .cls-24 {
        fill: #dd373e;
      }

      .cls-25 {
        fill: #6b8f4b;
      }

      .cls-26 {
        fill: none;
      }

      .cls-27 {
        fill: #fcb86c;
      }

      .cls-28 {
        fill: #45474a;
      }

      .cls-29 {
        fill: #6bacb3;
      }

      .cls-30 {
        fill: #a1a1a3;
      }

      .cls-31 {
        fill: #5899a2;
      }
    </style>
    <clipPath id="clippath">
      <rect class="cls-26" x="-107.66" y="-25.65" width="436.14" height="245.33"/>
    </clipPath>
  </defs>
  <g id="Layer_3" data-name="Layer 3">
    <polygon class="cls-24" points="149.26 14.61 50.74 14.61 1.47 99.93 50.74 185.26 149.26 185.26 198.53 99.93 149.26 14.61"/>
    <polygon class="cls-27" points="147.19 18.21 52.81 18.21 5.63 99.93 52.81 181.66 147.19 181.66 194.37 99.93 147.19 18.21"/>
  </g>
  <g id="Layer_2" data-name="Layer 2">
    <g class="cls-23">
      <g>
        <path class="cls-12" d="M85.78,94.11c.34-2.86,.69-5.72,1-8.59,.11-1.04,.16-2.1,.13-3.15-.11-3.27-.27-6.54-.42-9.8,1.24-.24,1.94-1,2.16-2.24,.07-.4,.23-.78,.35-1.17,1.46,.82,2.94,1.63,4.38,2.48,1.63,.96,3.07,2.41,5.19,2.05,1.13-.2,2.24-.59,3.35-.89,.71,.21,1.43,.43,2.14,.64-2.14,1.84-4.55,3-7.42,2.96-.61,0-1.21-.33-1.82-.46-.5-.11-1.02-.16-1.53-.23,.04,.6,0,1.22,.15,1.79,.13,.49,.6,.89,.71,1.37,.52,2.35,.88,4.76,3.03,6.34,.26,.19,.28,.68,.46,1,.58,1.04,1.01,2.21,1.8,3.07,1.52,1.64,3.02,3.18,2.28,5.68-1.73-.49-3.44-1.03-5.18-1.46-.93-.23-1.9-.3-2.86-.44-.26-.04-.52-.08-.77-.11-1.55-1.24-4.53-.74-6.19,.6-.28,.22-.61,.37-.91,.56Z"/>
        <path class="cls-3" d="M138.75,81.14c2.32,.17,4.64,.33,6.96,.51,.24,.02,.47,.16,.71,.24,.18,.35,.27,.8,.54,1.05,1.72,1.63,3.49,3.2,5.22,4.82,.4,.38,.87,.81,1.02,1.3,1.19,3.8,2.31,7.61,3.45,11.43-.17,1.9-.34,3.79-.51,5.69-.28,3.01-.57,6.01-.86,9.02-2.12,4.47-4.24,8.94-6.36,13.42-1.68,1.56-3.34,3.13-5.03,4.67-1.24,1.12-2.53,2.2-3.8,3.29-.16-.21-.38-.4-.48-.64-.25-.61-.46-1.25-.68-1.87,2.27-2.04,4.55-4.07,6.8-6.14,.74-.68,1.59-1.36,2.04-2.22,1.76-3.42,3.39-6.9,5.05-10.37,.19-.4,.36-.84,.41-1.27,.39-3.18,.78-6.36,1.1-9.55,.12-1.18,.31-2.44,.05-3.57-.65-2.86-1.49-5.68-2.36-8.48-.27-.85-.79-1.7-1.4-2.36-1.37-1.45-2.86-2.79-4.33-4.15-.26-.24-.64-.34-.97-.51-.38-.06-.77-.13-1.15-.19l-.44-.02c-.45-.7-1.02-.5-1.6-.2l-.44-.02c-.45-.7-1.02-.49-1.6-.21-.15,0-.3-.01-.44-.02-.87-.84-1.86-.5-2.76-.17-1.05,.38-2.06,.89-3.06,1.41-1.19,.61-2.34,1.29-3.51,1.94-.33,.19-.71,.33-.97,.59-.86,.86-1.67,1.77-2.5,2.65-.29-.52-.58-1.04-.87-1.56,.77-.93,1.53-1.86,2.3-2.79,.23-.22,.45-.43,.68-.65,.63-.33,.72-.72,.28-1.33-.32-.44-.48-1-.71-1.51,.38,.11,.76,.21,1.14,.32,.16,.54,.32,1.09,.54,1.85,.72-.49,1.23-.83,1.74-1.17,.82-.45,1.64-.91,2.47-1.36h0c.09,0,.18,0,.27,0,1.36-.62,2.73-1.24,4.09-1.86Z"/>
        <path class="cls-6" d="M90.08,47.62c-.33-.98-.71-1.96-.96-2.96-.1-.42,.08-.9,.13-1.36,.32,.28,.63,.56,.87,.76,.79-1.01,1.43-2.16,2.38-2.94,.83-.68,1.47-1.42,2.01-2.32,.67-1.12,1.6-1.84,3-1.91,.34-.02,.72-.52,.97-.88,.67-.97,1.29-1.98,2.04-3.16,.49,1.18,1.03,1.93-.17,2.7-.5,.32-.71,1.21-.87,1.88-.07,.28,.24,.83,.53,.99,1.26,.69,2.38,0,2.38-1.41,0-.49-.04-.99,.02-1.47,.03-.27,.19-.54,.33-.79,.33-.63,.82-1.22,.98-1.89,.15-.65,.37-.9,1.02-.91,.86,0,1.72-.09,2.59-.14,2.16,.43,2.33,2.38,3.04,3.93,.97,2.13,1.15,4.42,1.34,6.7,.08,.97,.03,1.95,.04,2.92-.41-.98-.83-1.95-1.25-2.94-.2,.07-.32,.08-.4,.15-.12,.09-.26,.19-.32,.32-.76,1.62-2.16,2.13-3.81,2.39-1.65,.26-2.58,.09-3.35-1.39-.7-1.34-1.06-2.87-1.6-4.3-.09-.23-.33-.53-.51-.54-.19-.02-.52,.25-.58,.46-.34,1.02-.57,2.08-.91,3.1-.43,1.31-1.41,1.97-2.79,2.08-.67,.05-1.33,.21-1.99,.33-1.75,.3-2.88,1.57-4.14,2.63Z"/>
        <path class="cls-2" d="M115.79,110.66c-.37,.59-.84,1.13-1.09,1.76-1.71,4.2-3.39,8.42-5.05,12.65-.11,.29,0,.66,0,1-.32,.65-.76,.82-1.46,.55-.93-.37-1.9-.64-2.85-.95,.08-.12,.18-.24,.23-.37,1.2-2.96,2.41-5.91,3.6-8.88,1.53-3.8,3.04-7.6,4.56-11.4,2.05-5.03,4.11-10.06,6.28-15.39,.87,1.75,1.61,3.24,2.35,4.74-.33,.67-.71,1.32-.98,2.02-1.28,3.29-3.17,6.33-3.9,9.85-.32,1.53-1.12,2.95-1.7,4.43Z"/>
        <path class="cls-14" d="M101.92,72.79c-1.12,.3-2.22,.69-3.35,.89-2.11,.37-3.56-1.09-5.19-2.05-1.45-.85-2.92-1.65-4.38-2.48,.64-1.78,.95-3.58,.21-5.42,.89-.41,1.91-.68,2.65-1.28,1.32-1.07,2.48-2.35,3.7-3.54,1.44,.32,2.88,.64,4.31,.95,.15,.08,.31,.16,.46,.24,.09,.2,.18,.4,.28,.6,.97,1.74,2.31,3.32,2.04,5.55-.06,.46,.34,.97,.48,1.47,.15,.53,.25,1.07,.38,1.61-.39,.71-.92,.7-1.58,.39-1.12-.52-2.26-1.01-3.41-1.49-.25-.1-.62-.18-.82-.07-.7,.41-.93,1.66-.52,2.54,1.38,.46,2.76,.89,4.13,1.39,.26,.09,.41,.46,.62,.69Z"/>
        <path class="cls-12" d="M103.51,69.34c-.12-.54-.22-1.08-.38-1.61-.14-.5-.54-1.01-.48-1.47,.28-2.22-1.07-3.81-2.04-5.55-.11-.19-.19-.4-.28-.6,1.3,.13,2.59,.26,3.89,.39,2,2.96,5.46,3.46,8.34,4.91,.86,.43,1.64,.78,2.18,1.62,.49,.75,1.19,1.37,1.6,2.16,.36,.7,.5,1.53,.64,2.31,.17,1.03,.24,2.07,.35,3.11-.26-.4-.47-.86-.8-1.19-.44-.44-.97-.78-1.47-1.17-.53,.67-1.06,1.34-1.59,2.01-.42-.16-.85-.29-1.24-.48-1.92-.93-3.84-1.87-5.75-2.83-1.01-.51-1.98-1.08-2.97-1.62Z"/>
        <path class="cls-16" d="M107.31,31.79c-.86,.05-1.72,.13-2.59,.14-.65,0-.87,.25-1.02,.91-.15,.67-.65,1.26-.98,1.89-.13,.25-.3,.52-.33,.79-.05,.49-.01,.98-.02,1.47,0,1.4-1.12,2.1-2.38,1.41-.29-.16-.6-.71-.53-.99,.16-.67,.37-1.56,.87-1.88,1.2-.77,.66-1.52,.17-2.7-.75,1.18-1.36,2.19-2.04,3.16-.25,.36-.63,.86-.97,.88-1.4,.08-2.33,.8-3,1.91-.54,.9-1.17,1.64-2.01,2.32-.95,.78-1.59,1.93-2.38,2.94-.24-.21-.55-.49-.87-.76,0-.23,0-.47,0-.7,.06-.08,.12-.16,.18-.25-.1-3.27,.86-6.3,2.07-9.28,.09-.23,.28-.5,.49-.58,2.48-.99,4.52-2.99,7.28-3.26,1.21-.12,2.55-.06,3.68,.34,1.53,.53,2.91,1.47,4.35,2.23Z"/>
        <path class="cls-19" d="M82.49,33.98c.05,2.66-.01,5.33,.17,7.98,.16,2.32-.53,4.38-1.37,6.46-.37,.92-.66,1.87-.98,2.81,1.9,.72,2.93,2.39,4.23,3.69,1.14,1.14,2.03,2.54,2.99,3.86,.2,.28,.23,.69,.34,1.04-.58,.48-1.16,.95-1.74,1.43-.32-.26-.67-.49-.96-.78-1.66-1.65-3.36-3.26-4.95-4.97-1-1.08-2.17-1.82-3.52-2.35-1.42-.55-1.78-.39-2.27,1.13-.04,.13-.16,.24-.23,.36-.13-.3-.26-.6-.39-.9,.21-.28,.57-.54,.61-.85,.21-1.37,.31-2.75,.5-4.12,.08-.62,.27-1.22,.48-2.09,.32,.41,.41,.52,.5,.63,.32,.39,.63,.78,.95,1.16,.36-.41,.75-.79,1.06-1.23,1.51-2.18,1.95-4.78,2.63-7.26,.4-1.43,.23-3.03,.29-4.55,.04-.92-.2-1.9,.67-2.61,.33,.38,.66,.76,.99,1.14Z"/>
        <path class="cls-25" d="M113.73,105.02c-1.52,3.8-3.03,7.6-4.56,11.4-1.19,2.96-2.4,5.92-3.6,8.88-.05,.13-.15,.25-.23,.37-.3-.23-.59-.46-.89-.7-.28-.21-.53-.48-.84-.62-1.05-.45-2.05-.03-3.05,.25-.61-2.47-1.2-4.94-1.86-7.39-.13-.48-.57-.88-.86-1.31h.01c-.17-.28-.28-.69-.53-.83-.71-.39-1.48-.66-2.22-.98,.02-.15,.04-.3,.05-.45,.14-.15,.29-.3,.43-.45,1-.94,2.12-.94,3.31-.45,.1,.04,.21,.06,.32,.08-.24,.87-1.22,1.74-.02,2.62,.63,.68,2.95,1.22,3.86,.89,.62,1.44,1.24,2.89,1.88,4.32,.11,.25,.33,.46,.51,.68,.19-.24,.45-.44,.57-.71,.79-1.86,1.6-3.71,2.32-5.6,.49-1.27,.84-2.59,1.26-3.88,.25-.6,.51-1.2,.76-1.79,.39-.99,.77-1.97,1.16-2.96,.13-.16,.26-.32,.39-.49,.61-.3,1.23-.6,1.84-.9Z"/>
        <path class="cls-18" d="M138.93,134.06c.22,.63,.43,1.26,.68,1.87,.1,.24,.32,.43,.48,.64-.43,.22-.84,.55-1.3,.65-2.84,.64-5.68,1.24-8.53,1.85-1.93-1-3.92-1.89-5.75-3.03-1.02-.64-1.95-1.58-2.62-2.58-1.31-1.95-2.47-4.01-3.55-6.1-.47-.92-.69-2.01-.84-3.05-.4-2.68-.71-5.38-1.04-8.07-.04-.33,.02-.68,.03-1.02,.26,0,.53,0,.79,0,.26,1.98,.46,3.97,.81,5.93,.29,1.61,.53,3.29,1.2,4.75,.94,2.04,2.25,3.91,3.42,5.84,.2,.33,.5,.68,.84,.85,2.05,1.04,4.11,2.06,6.2,3.01,.41,.18,.97,.02,1.46,.01,.15-.02,.3-.03,.45-.05,.16-.05,.33-.09,.49-.14,2.26-.46,4.51-.92,6.77-1.39Z"/>
        <path class="cls-18" d="M81.45,166.99c-1.33-1.46-2.89-2.77-3.91-4.41-.78-1.26-.79-2.97-1.29-4.42-1.09-3.12-.92-6.34-.86-9.55,.02-1.39,.28-2.77,.44-4.15,0,.98-.04,1.97-.01,2.95,.09,2.81-.24,5.62,.43,8.44,.75,3.16,1.8,6.02,4.39,8.16,.59,.49,1.04,.83,1.77,.45,.45-.02,.89-.04,1.34-.06,.31-.04,.62-.08,.94-.12l1.35-.09c.1-.04,.19-.08,.29-.13,1.62-1.58,3.24-3.16,4.85-4.75,.15-.15,.25-.37,.34-.58,1.96-4.34,4.39-8.51,4.86-13.4,.23-2.39,.74-4.75,.94-7.14,.12-1.42-.12-2.86-.2-4.29,.24-.24,.49-.48,.73-.72,.15,2.04,.31,4.08,.46,6.12-.68,4-1.36,8-2.04,12-.77,1.76-1.5,3.54-2.32,5.27-1.07,2.26-1.8,4.72-3.81,6.45-1.03,.89-1.89,1.97-2.92,2.85-.5,.43-1.18,.76-1.82,.86-1.3,.19-2.62,.19-3.94,.27Z"/>
        <path class="cls-13" d="M110.8,49.23c.07,1.47-.43,2.69-1.6,3.62,.08-.32,.1-.67,.24-.97,.39-.85,0-1.2-.79-1.32-1.11-.16-2.23-.41-3.34-.43-1.49-.03-2.36-.81-3.01-2.01-.49-.91-.98-1.81-1.51-2.78-.42,.88-.76,1.67-1.15,2.42-.75,1.41-1.78,2.37-3.54,2.37-.72,0-1.47,.28-2.15,.58-.84,.36-1.3,1-.96,2,.07,.22-.11,.53-.17,.8-.82-1.08-2.01-1.92-2.2-3.41,.17-.22,.42-.41,.5-.65,.42-1.16,1.39-1.66,2.43-2.02,.59-.2,1.26-.2,1.89-.28,2.35-.28,3.66-1.45,4.24-3.77,.23-.92,.48-1.83,.71-2.74,.11,0,.22,0,.33-.01,.17,.47,.41,.93,.51,1.41,.4,1.95,.78,3.91,2.14,5.48,.23,.27,.54,.67,.82,.68,1.64,.07,3.28,.04,4.92,.05,.62,0,1.24,.02,1.86,.03,0,.23,0,.45,0,.68-.06,.09-.12,.18-.17,.26Z"/>
        <path class="cls-19" d="M110.98,48.29c-.62,0-1.24-.02-1.86-.03-1.64,0-3.28,.02-4.92-.05-.28-.01-.59-.41-.82-.68-1.36-1.57-1.73-3.53-2.14-5.48-.1-.49-.34-.94-.51-1.41-.11,0-.22,0-.33,.01-.24,.91-.48,1.83-.71,2.74-.58,2.32-1.89,3.49-4.24,3.77-.63,.08-1.3,.07-1.89,.28-1.04,.36-2.01,.86-2.43,2.02-.09,.25-.33,.44-.5,.65-.18-.83-.36-1.66-.53-2.49,1.26-1.06,2.39-2.33,4.14-2.63,.66-.11,1.32-.28,1.99-.33,1.38-.1,2.36-.77,2.79-2.08,.34-1.02,.57-2.08,.91-3.1,.07-.21,.4-.47,.58-.46,.19,.02,.43,.32,.51,.54,.54,1.43,.9,2.95,1.6,4.3,.77,1.48,1.7,1.65,3.35,1.39,1.64-.26,3.05-.77,3.81-2.39,.06-.13,.2-.23,.32-.32,.08-.06,.2-.08,.4-.15,.42,.99,.83,1.97,1.25,2.94-.25,.98-.5,1.96-.75,2.94Z"/>
        <path class="cls-16" d="M85.78,94.11c.31-.18,.64-.34,.91-.56,1.66-1.34,4.64-1.84,6.19-.6-3.53,1.75-5.13,5.44-7.94,7.91-.95,.84-1.82,1.78-2.81,2.58-1.25,1.02-2.57,1.95-3.89,2.89-.64,.45-1.34,.81-2.01,1.21-.37-.07-.73-.14-1.1-.21-.16-.09-.32-.18-.49-.28,1.52-1.24,3.13-2.39,4.53-3.76,1.24-1.21,2.27-2.64,3.36-4.01,.9-1.13,1.75-2.29,2.58-3.47,.24-.34,.34-.79,.5-1.18,.06-.17,.12-.33,.18-.5h-.01Z"/>
        <path class="cls-15" d="M81.45,166.99c1.31-.08,2.64-.08,3.94-.27,.64-.09,1.33-.43,1.82-.86,1.03-.88,1.89-1.96,2.92-2.85,2.01-1.73,2.74-4.19,3.81-6.45,.82-1.74,1.55-3.51,2.32-5.27,.55,0,1.11,0,1.74,0,.71-4.05,1.4-8.03,2.1-12-.14-2.27-.29-4.54-.43-6.81,.17,0,.33,.02,.5,.02,.14,.6,.28,1.19,.42,1.79,.06,.69,.13,1.39,.19,2.08,.01,.3,.03,.6,.04,.9-.08,.28-.22,.56-.22,.83,.08,3.58-1.05,6.98-1.47,10.49-.42,3.56-2.47,6.51-3.64,9.79-.7,1.97-1.99,3.45-3.48,4.84-1.08,1-2.11,2.06-3.13,3.12-.76,.8-1.62,1.22-2.77,1.15-.92-.06-1.87,.21-2.79,.14-.64-.05-1.25-.41-1.88-.64Z"/>
        <path class="cls-15" d="M148.92,128.62c2.12-4.47,4.24-8.94,6.36-13.42q2.33,.28,2.51-2.06c0-.11,.02-.22,.03-.34,.37-4.03,.75-8.05,1.13-12.08,.05,0,.11,0,.16-.01,0,1.24,.05,2.48-.01,3.71-.06,1.14-.28,2.28-.39,3.42-.24,2.48-.3,4.99-.75,7.43-.25,1.36-1.11,2.62-1.71,3.92-1.37,2.93-2.74,5.87-4.15,8.78-.25,.51-.73,.9-1.1,1.35-.69-.23-1.38-.46-2.07-.69Z"/>
        <path class="cls-6" d="M81.5,32.84c-.87,.7-.64,1.68-.67,2.61-.06,1.52,.11,3.12-.29,4.55-.68,2.47-1.12,5.08-2.63,7.26-.31,.44-.7,.82-1.06,1.23-.32-.39-.64-.78-.95-1.16-.09-.11-.18-.22-.5-.63-.2,.86-.39,1.47-.48,2.09-.19,1.37-.29,2.75-.5,4.12-.05,.31-.4,.57-.61,.85,.14-2.99,.25-5.98,.44-8.96,.05-.88,.31-1.75,.47-2.62,.69-.64,1.38-1.28,2.23-2.07,0,.56,0,.96,0,1.36,0,1.09-.02,2.19,.02,3.28,0,.2,.22,.42,.4,.55,.06,.04,.39-.1,.43-.22,.34-.94,.81-1.88,.93-2.85,.3-2.36,.52-4.74,.58-7.12,.03-1.28,.89-2.09,1.27-3.15,.08,0,.16,0,.23,0,.23,.3,.45,.61,.68,.91Z"/>
        <path class="cls-18" d="M96.47,55.8c-.68-.23-1.36-.46-2.05-.69-.06-.36-.05-.77-.2-1.09-.41-.83-.12-1.36,.63-1.75,.33-.17,.66-.43,1.02-.48,1.98-.28,3.31-1.45,4.38-3.03,.3-.45,.77-.76,1.16-.12,1.31,2.11,3.27,3.2,5.63,3.66,.95,.19,1.33,.76,1.26,1.69-.63,1.68-2.08,2.28-3.63,2.72-.51-.13-1.03-.4-1.52-.35-.61,.06-1.18,.44-1.79,.6-.89,.23-1.63,.05-1.94-.95,1.28,.91,2.42,.53,3.58-.29,.37-.26,.92-.26,1.38-.41,.25-.09,.67-.24,.67-.37,0-.28-.17-.6-.36-.83-.27-.34-.64-.61-.94-.93-.74-.8-1.48-1.6-2.19-2.43-.5-.58-1.03-.46-1.46-.01-.89,.92-1.74,1.87-2.56,2.85-.23,.28-.29,.7-.36,.87,.86,.6,1.54,1.08,2.23,1.55-.49-.17-.97-.36-1.46-.51-.54-.17-1.14-.55-1.48,.3Z"/>
        <path class="cls-4" d="M159.11,100.71c-.05,0-.11,.01-.16,.01-.76-.08-1.53-.16-2.29-.23-1.14-3.81-2.26-7.63-3.45-11.43-.15-.49-.62-.93-1.02-1.3-1.73-1.62-3.5-3.19-5.22-4.82-.27-.26-.36-.7-.54-1.05,1.21-.31,1.94,.49,2.71,1.19,1.8,1.64,3.63,3.25,5.37,4.95,.61,.6,1.19,1.37,1.45,2.18,1.12,3.48,2.11,7,3.16,10.5Z"/>
        <path class="cls-9" d="M80.82,31.93c-.08,0-.16,0-.23,0-1.2,.16-2.4,.33-3.6,.49-.61-.81-.33-1.47,.13-2.3,1.21-2.17,2.26-4.44,3.42-6.74,1.31,.55,3.17-.59,4.17,1.26-1.04,.65-1.44,1.62-1.66,2.8-.29,1.56-.23,3.36-2.05,4.21-.09,.04-.13,.18-.19,.28Z"/>
        <path class="cls-30" d="M112.56,144.76c-.3-.63-.7-1.24-.89-1.91-.85-2.9-1.64-5.82-2.43-8.73-.07-.25-.04-.52-.05-.79,.56-.5,1.12-1,1.68-1.5,.35-.69,.71-1.38,1.06-2.08,.22,.84,.53,1.68,.63,2.54,.29,2.37,.49,4.75,.72,7.13,.08,.82,.13,1.64,.25,2.45,.11,.82,.36,1.21,1.4,.85,1.65-.57,3.35-.34,4.93,.47-.41,.07-.82,.13-1.23,.2-.04,.03-.07,.03-.11,0-2.14-.93-4.39-.41-5.95,1.38Z"/>
        <path class="cls-16" d="M76.99,32.43c1.2-.16,2.4-.33,3.6-.49-.38,1.06-1.24,1.87-1.27,3.15-.06,2.38-.28,4.76-.58,7.12-.12,.98-.59,1.91-.93,2.85-.04,.12-.37,.27-.43,.22-.18-.14-.39-.36-.4-.55-.04-1.09-.02-2.19-.02-3.28,0-.4,0-.8,0-1.36-.85,.79-1.54,1.43-2.23,2.07,.59-2.81,1.17-5.61,1.78-8.42,.1-.45,.33-.88,.49-1.32Z"/>
        <path class="cls-28" d="M128.94,86.21c-.23,.22-.45,.43-.68,.65-1.66-.69-3.32-1.37-4.99-2.06-1.52-2.63-3.05-5.27-4.57-7.9,.91,.21,1.81,.42,2.72,.64,.44,.48,.88,.95,1.32,1.43,.23,.26,.4,.64,.69,.77,.75,.34,1.54,.57,2.32,.85,1.07,1.87,2.13,3.75,3.2,5.62Z"/>
        <path class="cls-30" d="M82.41,164.45c-.73,.38-1.18,.04-1.77-.45-2.59-2.14-3.64-4.99-4.39-8.16-.67-2.83-.34-5.63-.43-8.44-.03-.98,0-1.97,.01-2.95,.3-1.26,.6-2.51,.9-3.77,0-.24,0-.49-.01-.73,0,0,0,.02,0,.02,.15-.69,.31-1.37,.46-2.06,0,0,0,.02,0,.02,.23-.61,.45-1.22,.68-1.82,.31,.08,.62,.17,.93,.25-.05,.41-.08,.82-.17,1.22-.54,2.57-1.44,5.12-1.57,7.71-.19,3.66-.4,7.35,.57,11.01,.72,2.73,1.73,5.16,3.93,7.01,.36,.3,.58,.76,.87,1.14Z"/>
        <path class="cls-17" d="M148.92,128.62c.69,.23,1.38,.46,2.07,.69-2.93,2.66-5.75,5.45-8.84,7.91-1.11,.88-2.85,1.03-4.34,1.39-1.76,.43-3.55,.72-5.33,1.1-.87,.19-1.59-.06-2.23-.63,2.84-.61,5.69-1.2,8.53-1.85,.46-.1,.87-.43,1.3-.65,1.27-1.09,2.56-2.17,3.8-3.29,1.7-1.53,3.36-3.11,5.03-4.67Z"/>
        <path class="cls-28" d="M108.3,53.99c.06-.92-.31-1.5-1.26-1.69-2.36-.46-4.32-1.55-5.63-3.66-.4-.64-.86-.33-1.16,.12-1.07,1.58-2.4,2.75-4.38,3.03-.35,.05-.68,.31-1.02,.48-.75,.39-1.04,.92-.63,1.75,.16,.32,.14,.72,.2,1.09-.54-.53-1.07-1.07-1.61-1.6,.06-.27,.24-.58,.17-.8-.33-1.01,.12-1.64,.96-2,.68-.29,1.43-.57,2.15-.58,1.76,0,2.79-.96,3.54-2.37,.4-.75,.74-1.54,1.15-2.42,.53,.97,1.02,1.88,1.51,2.78,.65,1.2,1.52,1.98,3.01,2.01,1.12,.02,2.23,.27,3.34,.43,.78,.11,1.18,.46,.79,1.32-.14,.3-.16,.65-.24,.97-.3,.38-.6,.76-.9,1.14Z"/>
        <path class="cls-29" d="M75.13,107.32c.37,.07,.73,.14,1.1,.21,.37,.38,.75,.76,1.12,1.14,.27,.52,.53,1.04,.8,1.57-.36,.02-.73,.05-1.06,.07-.31,1.75-.33,1.59-1.93,1.17-1.73-.46-3.57-.69-5.36-.7-1.61,0-1.98,.85-1.47,2.45,.09,.28-.02,.62-.04,.93-.45-1.13-1.13-2.23-1.28-3.39-.12-.96,.4-2.01,.64-3.02,1.55,.4,3.1,.79,4.65,1.2,1.01,.27,2.48-.55,2.83-1.63Z"/>
        <path class="cls-6" d="M91.29,119.1c-.45-.23-.88-.5-1.35-.67-1.28-.46-2.58-.87-4.11-1.38,1.24-1.24,3.55-.91,3.22-3.15,1.29,.18,2.61,.28,3.88,.58,1.67,.39,3.29,.95,4.94,1.44,0,0-.01-.01-.01-.01-.07,1.23-.65,2.19-1.56,2.99-.7-.47-1.21-.21-1.62,.41-.45,0-.9,0-1.35,0-.5,0-1.01,0-1.51,0-.17-.07-.34-.14-.51-.21Zm3.59-1.62c-.15,.07-.3,.15-.46,.22-.22,.01-.43,.03-.65,.04l-.03-.04c.4-.57,.79-1.14,1.19-1.72-.09-.1-.19-.21-.28-.31-.3,.23-.59,.46-.89,.69-1-.07-1.73,.21-1.8,1.36-.49,.19-1.02,.6-1.36-.2,.73-.79,1.47-1.57,2.29-2.45-1.46-.47-3.09,.73-3.42,2.2-.01,.21-.06,.58-.03,.59,1.68,.42,3.38,1.13,5.03-.11,.15-.08,.3-.16,.45-.24,.03-.04,.06-.08,.09-.12-.04,.03-.08,.06-.12,.09Z"/>
        <path class="cls-15" d="M111.93,129.75c-.35,.69-.71,1.38-1.06,2.08-.3-.16-.58-.39-.89-.46-1.87-.41-3.73-.83-5.62-1.14-1.16-.19-2.36-.17-3.55-.25,.08-.76,.15-1.51,.23-2.27,.56-.03,1.12-.05,1.68-.09,.64-.05,1.3-.26,1.91-.15,2.35,.41,4.69,.91,7.03,1.38,.09,.3,.18,.6,.27,.9Z"/>
        <path class="cls-25" d="M118.71,76.9c1.52,2.63,3.05,5.27,4.57,7.9,.9,1.62,1.79,3.24,2.69,4.85,.29,.52,.58,1.04,.87,1.56,.18,.43,.37,.87,.55,1.3,.67,1.25,1.35,2.5,2.01,3.76,.91,1.75,1.81,3.51,2.71,5.27-.22,.01-.45,.02-.67,.04-.7-1.24-1.41-2.49-2.11-3.73-4.08-7.19-8.16-14.38-12.22-21.59-.73-1.3-1.37-2.66-2.04-4,.49,.39,1.03,.73,1.47,1.17,.33,.33,.54,.79,.8,1.19,.06,1,.4,1.83,1.37,2.28Z"/>
        <path class="cls-17" d="M100.81,129.99c1.18,.08,2.38,.06,3.55,.25,1.88,.3,3.75,.73,5.62,1.14,.32,.07,.6,.3,.89,.46-.56,.5-1.12,1-1.68,1.5-1.27,.03-2.55,.06-3.82,.08-.41-.07-.82-.13-1.22-.2l-1.95-.31c-.68-.14-1.36-.28-2.03-.41-.17,0-.33-.02-.5-.02-.22-.14-.45-.29-.67-.43-.14-.18-.27-.36-.41-.54,.91-.26,1.78-.58,2.23-1.52Z"/>
        <path class="cls-3" d="M117.28,115.24c-.26,0-.53,0-.79,0,.11-.79,.21-1.58,.35-2.36,.17-.99,.21-1.9-1.05-2.21,.58-1.47,1.38-2.9,1.7-4.43,.73-3.53,2.62-6.56,3.9-9.85,.27-.7,.65-1.35,.98-2.02,.23,.5,.47,1,.7,1.5-1.36,2.98-2.71,5.96-4.07,8.94-.57,3.48-1.14,6.96-1.72,10.44Z"/>
        <path class="cls-13" d="M86.91,105.95c-.38,.19-.8,.33-1.12,.59-2.21,1.82-4.4,3.66-6.59,5.5-.14-.37-.29-.74-.44-1.11,.44-.45,.81-1.03,1.34-1.33,3.25-1.82,5.75-4.53,8.46-6.99,1.74-1.58,3.46-3.19,5.23-4.74,.27-.24,.75-.24,1.13-.35-.16,.39-.32,.78-.47,1.17-.12,.09-.28,.15-.35,.27-1.26,2.04-2.86,3.73-4.96,4.91-.74,.69-1.48,1.38-2.22,2.07Z"/>
        <path class="cls-13" d="M74.2,54.65c.08-.12,.19-.23,.23-.36,.49-1.52,.85-1.69,2.27-1.13,1.35,.53,2.52,1.27,3.52,2.35,1.59,1.71,3.29,3.33,4.95,4.97,.29,.29,.64,.52,.95,.78-.35,.44-.71,.88-1.06,1.32-.21,.23-.41,.47-.62,.7-.08,0-.16,0-.24,0-.16-.33-.27-.71-.5-.98-1.74-2.1-3.47-4.22-5.3-6.24-.52-.58-1.36-.89-2.08-1.25-.74-.36-1.22-.06-1.42,.72-.24-.29-.47-.58-.71-.87Z"/>
        <path class="cls-31" d="M78.76,110.93c.15,.37,.29,.74,.44,1.11-.61,.86-1.23,1.71-1.84,2.57-1.49-.76-2.91-1.74-4.48-2.2-.91-.26-2.16,.15-3.08,.63-.32,.17-.1,1.4-.12,2.15-.02,.48-.05,.96-.07,1.44-.44-.82-.88-1.65-1.32-2.47,.02-.31,.13-.65,.04-.93-.51-1.6-.14-2.46,1.47-2.45,1.79,0,3.63,.24,5.36,.7,1.6,.43,1.62,.58,1.93-1.17,.34-.02,.7-.05,1.06-.07,.2,.23,.41,.46,.61,.7Z"/>
        <path class="cls-3" d="M91.29,119.1c.17,.07,.34,.14,.51,.21-.42,1.05-.84,2.09-1.26,3.14-1.42,.48-2.84,.95-4.25,1.43-.39,.03-.96-.11-1.15,.1-1.34,1.5-2.61,3.07-3.89,4.62-1.13,2.5-2.26,5.01-3.39,7.51-.23,.61-.45,1.22-.68,1.82,.46-1.62,.84-3.26,1.41-4.84,.57-1.59,1.18-3.2,2.03-4.64,.96-1.64,2.33-3.05,3.31-4.69,1.45-2.42,4.04-2.89,6.26-4,.38-.19,.74-.44,1.11-.65Z"/>
        <path class="cls-29" d="M85.08,62.57c.35-.44,.71-.88,1.06-1.32,.58-.48,1.16-.95,1.74-1.43,.44,1.31,.89,2.61,1.33,3.92,.74,1.84,.42,3.63-.21,5.42-.12,.39-.28,.77-.35,1.17-.22,1.24-.91,2-2.16,2.24-.17-.29-.35-.57-.52-.86,1.96-1.52,2.71-2.76,1.34-5.25-.36-.65-.57-1.39-.94-2.04-.37-.65-.86-1.23-1.29-1.85Z"/>
        <path class="cls-28" d="M74.91,55.51c.2-.78,.68-1.09,1.42-.72,.73,.36,1.56,.67,2.08,1.25,1.83,2.02,3.56,4.14,5.3,6.24,.23,.28,.34,.65,.5,.98-.51,1.05-1.19,1.53-2.29,.72-.05-.04-.14,0-.22-.01-.08-.07-.16-.15-.24-.22-.1-.24-.15-.5-.29-.7-1.23-1.77-2.46-3.55-3.74-5.29-.31-.42-.79-.72-1.19-1.07-.45-.39-.89-.78-1.34-1.17Z"/>
        <path class="cls-31" d="M81.47,63.75c.08,.07,.16,.15,.24,.22,.98,1.4,1.95,2.81,2.95,4.2,.1,.14,.49,.27,.53,.22,.17-.21,.4-.51,.36-.74-.26-1.49-.09-3.09-1.09-4.39,.21-.23,.41-.47,.62-.7,.44,.61,.92,1.2,1.29,1.85,.37,.65,.58,1.39,.94,2.04,1.37,2.5,.62,3.73-1.34,5.25-2.16-2.54-4.15-5.2-5.61-8.22,.37,.09,.75,.18,1.12,.26Z"/>
        <path class="cls-8" d="M69.6,116.62c.02-.48,.05-.96,.07-1.44,.03-.75-.2-1.98,.12-2.15,.91-.47,2.16-.89,3.08-.63,1.57,.45,2.99,1.44,4.48,2.2-.59,.97-1.18,1.94-1.78,2.91-.21-.28-.42-.57-.63-.85-.43-.56-.8-1.18-1.32-1.64-.21-.18-.89-.18-1.07,.01-.44,.47-.69,1.12-1.06,1.67-.2,.3-.49,.55-.74,.82-.38-.3-.77-.61-1.15-.91Z"/>
        <path class="cls-18" d="M111.66,128.85c-2.34-.47-4.68-.97-7.03-1.38-.61-.11-1.27,.11-1.91,.15-.56,.04-1.12,.06-1.68,.09-.02-.23-.04-.45-.05-.68q2.17,.01,2.34-1.76c0-.07,.08-.12,.16-.25,.29-.02,.63-.04,.96-.06,.3,.23,.59,.46,.89,.7,.95,.31,1.92,.59,2.85,.95,.7,.28,1.15,.1,1.46-.55,1.25,.51,1.96,1.4,2.01,2.78Z"/>
        <path class="cls-14" d="M75.13,107.32c-.35,1.08-1.82,1.9-2.83,1.63-1.54-.42-3.1-.8-4.65-1.2,.32-.83,.64-1.66,.93-2.41,2.12,.6,4.09,1.15,6.07,1.71,.16,.09,.32,.18,.49,.28Z"/>
        <path class="cls-19" d="M104.22,60.51c-1.3-.13-2.59-.26-3.89-.39-.15-.08-.31-.16-.46-.24,0-.45,.11-.94-.03-1.34-.12-.36-.55-.91-.79-.88-.97,.11-1.51-.52-2.16-.99,0-.22,0-.44,0-.65,2.13,1.42,4.57,1.69,7.04,1.79,.1,.9,.19,1.8,.29,2.7Z"/>
        <path class="cls-22" d="M80.82,31.93c.06-.09,.1-.24,.19-.28,1.82-.84,1.76-2.64,2.05-4.21,.22-1.18,.62-2.15,1.66-2.8,.1,.07,.3,.17,.29,.22-.78,2.99-1.57,5.98-2.37,8.96-.02,.06-.1,.1-.15,.16-.33-.38-.66-.76-.99-1.14-.23-.3-.45-.61-.68-.91Z"/>
        <path class="cls-3" d="M86.91,105.95c.74-.69,1.48-1.38,2.22-2.07,.46,.31,.96,.58,1.39,.93,.81,.66,1.6,1.13,2.74,.75,.38-.13,.94,.29,1.48,.47-.38,.58-.62,.94-.86,1.3-.11-.01-.23-.02-.34-.03-1.19-.44-2.34-.92-3.69-.7-1.01,.16-2.1,.23-2.94-.64Z"/>
        <path class="cls-9" d="M138.75,81.14c-1.36,.62-2.73,1.24-4.09,1.86-.03-.07-.05-.14-.08-.21-.32-.38-.56-.89-.97-1.1-.54-.28-1.2-.33-1.8-.48,1.37-.45,2.72-1,4.12-1.33,1.18-.28,1.96,.67,2.82,1.27Z"/>
        <path class="cls-30" d="M93.54,107.29c.11,.01,.23,.02,.34,.03,.64,.23,1.27,.46,1.91,.69-.06,.22-.13,.44-.19,.67h0c-.53,.3-1.06,.61-1.59,.91h.01c-1.71,.12-2.71,1.28-3.68,2.48-.14-.71-.34-1.42-.39-2.14-.02-.22,.34-.53,.6-.68,.83-.49,1.7-.92,2.54-1.4,.2-.11,.31-.37,.46-.56Z"/>
        <path class="cls-4" d="M70.75,117.53c.25-.27,.54-.52,.74-.82,.37-.55,.62-1.19,1.06-1.67,.18-.19,.86-.2,1.07-.01,.52,.46,.89,1.08,1.32,1.64,.21,.28,.42,.56,.63,.85-.15,.15-.31,.44-.44,.43-1.46-.11-2.92-.27-4.38-.41Z"/>
        <path class="cls-25" d="M128.94,86.21c-1.07-1.87-2.13-3.75-3.2-5.62-.54-.92-1.11-1.83-1.61-2.77-.32-.6-.56-1.25-.83-1.88,.65,.93,1.28,1.87,1.96,2.77,.32,.42,.76,.76,1.15,1.14,.16,.29,.33,.57,.49,.86,.54,.89,1.08,1.77,1.62,2.66,.23,.51,.39,1.07,.71,1.51,.44,.61,.35,1-.28,1.33Z"/>
        <path class="cls-20" d="M123.3,75.94c.27,.63,.51,1.28,.83,1.88,.51,.94,1.07,1.85,1.61,2.77-.78-.28-1.57-.51-2.32-.85-.29-.13-.45-.52-.69-.77-.43-.48-.88-.95-1.32-1.43,.29-.54,.54-1.11,.89-1.6,.12-.17,.49-.17,.74-.24,.08,.09,.17,.17,.25,.26v-.02Z"/>
        <path class="cls-16" d="M96.89,56.67c.65,.46,1.2,1.1,2.16,.99,.24-.03,.67,.52,.79,.88,.14,.4,.03,.89,.03,1.34-1.44-.32-2.88-.64-4.31-.95,.45-.75,.89-1.5,1.34-2.25Z"/>
        <path class="cls-10" d="M90.34,112.08c.98-1.2,1.97-2.37,3.68-2.47,0,.06,0,.13-.03,.19-.78,.46-1.82,.61-2.22,1.66,1.1,.21,2.11,.39,3.13,.58,.23,.39,.45,.77,.68,1.16-.14,.15-.29,.3-.43,.45-1.6-.52-3.21-1.05-4.81-1.57Z"/>
        <path class="cls-13" d="M103.94,57.81c-2.47-.1-4.9-.37-7.04-1.79-.14-.07-.28-.14-.43-.21,.34-.85,.94-.47,1.48-.3,.49,.15,.97,.34,1.46,.51h0c.32,1,1.06,1.18,1.94,.95,.61-.16,1.18-.53,1.79-.6,.49-.05,1.01,.22,1.52,.35-.49,.2-.85,.49-.73,1.1Z"/>
        <path class="cls-13" d="M81.47,63.75c-.37-.09-.75-.18-1.12-.26,0,0,0,0,0,0-.07-.08-.14-.16-.21-.24-1.26-2.05-2.53-4.09-3.79-6.15-.07-.12-.07-.28-.1-.42,.4,.35,.88,.65,1.19,1.07,1.28,1.74,2.5,3.52,3.74,5.29,.14,.2,.2,.47,.29,.7Z"/>
        <path class="cls-30" d="M97.85,115.92c-1.64-.49-3.27-1.05-4.94-1.44-1.27-.3-2.58-.39-3.88-.58,.18-.17,.38-.5,.55-.49,1.1,.11,2.2,.29,3.3,.44,.73,.1,1.47,.17,2.21,.25,.75,.32,1.52,.59,2.22,.98,.26,.14,.36,.56,.53,.85Z"/>
        <path class="cls-28" d="M126.9,80.71c-.16-.29-.33-.57-.49-.86,1.06,.24,2.13,.47,3.19,.73,.74,.18,1.47,.41,2.21,.61,.61,.15,1.26,.2,1.8,.48,.4,.21,.65,.72,.97,1.1-.06,.08-.12,.15-.18,.23,0,0,0,0,0,0-.21-.07-.42-.15-.63-.21-2.29-.7-4.58-1.39-6.87-2.08Z"/>
        <path class="cls-6" d="M112.56,144.76c1.56-1.79,3.81-2.31,5.95-1.38-.53,.23-1.07,.45-1.6,.68-.2-.5-.47-1.02-1.06-.56-.42,.32-.67,.86-1,1.3l.24,.58c-.84-.21-1.68-.41-2.52-.62Z"/>
        <path class="cls-1" d="M104.14,133.22c.41,.07,.82,.13,1.22,.2-1.52,1.28-3.04,2.57-4.56,3.85-.01-.3-.03-.6-.04-.9,.39-.29,.81-.55,1.16-.88,.76-.73,1.48-1.51,2.21-2.27Z"/>
        <path class="cls-16" d="M115.09,145.38c-.08-.19-.16-.39-.24-.58,.54-.18,1.08-.35,1.61-.53-.08,.73,.34,.81,.91,.7,.5-.08,1-.17,1.5-.25-.04,.93-.5,1.35-1.43,1.16-.78-.16-1.56-.33-2.34-.5Z"/>
        <path class="cls-6" d="M118.87,144.72c-.5,.08-1,.17-1.5,.25,.32-.61,1.5-.54,1.25-1.59,.41-.07,.82-.13,1.23-.2,.29,.09,.59,.17,.88,.26,.02,.14,.05,.27,.07,.41-.65,.29-1.29,.58-1.94,.87Z"/>
        <path class="cls-3" d="M77.17,137.91c-.15,.69-.31,1.37-.46,2.06,.15-.69,.31-1.37,.46-2.06Z"/>
        <path class="cls-30" d="M120.8,143.86c-.02-.14-.05-.27-.07-.41,.14,.04,.29,.08,.43,.12-.12,.1-.24,.19-.36,.29Z"/>
        <path class="cls-3" d="M76.71,139.95c0,.24,0,.49,.01,.73,0-.24,0-.49-.01-.73Z"/>
        <path class="cls-12" d="M85.8,94.11c-.06,.17-.12,.33-.18,.5,.06-.17,.12-.33,.18-.5Z"/>
        <path class="cls-19" d="M110.8,49.23c.06-.09,.12-.18,.17-.26-.06,.09-.12,.18-.17,.26Z"/>
        <path class="cls-31" d="M80.15,63.25c.07,.08,.14,.16,.21,.24-.07-.08-.14-.16-.21-.24Z"/>
        <path class="cls-25" d="M123.3,75.96c-.08-.09-.17-.17-.25-.26,.08,.09,.17,.17,.25,.26Z"/>
        <path class="cls-6" d="M89.43,42.35c-.06,.08-.12,.16-.18,.25,.06-.08,.12-.16,.18-.25Z"/>
        <path class="cls-29" d="M101.7,94.97c.74-2.5-.76-4.04-2.28-5.68-.79-.85-1.22-2.03-1.8-3.07-.18-.32-.2-.81-.46-1-2.16-1.58-2.51-3.99-3.03-6.34-.11-.49-.58-.89-.71-1.37-.15-.57-.11-1.19-.15-1.79,.51,.07,1.03,.12,1.53,.23,.61,.13,1.21,.46,1.82,.46,2.87,.03,5.28-1.13,7.42-2.96,2.62,1.37,5.25,2.74,7.87,4.11-.23,.63-.49,1.26-.69,1.9-.57,1.83-1.07,3.68-1.67,5.5-1.08,3.28-2.2,6.55-3.33,9.81-.12,.35-.45,.64-.69,.95-1.28-.25-2.57-.5-3.85-.75Z"/>
        <path class="cls-9" d="M101.7,94.97c1.28,.25,2.57,.5,3.85,.75,.56,.31,1.12,.62,1.69,.93-.58,.64-1.16,1.28-1.87,2.05h3.4c-1.13,1.67-2.26,3.35-3.39,5.02-2.02-.77-4.07-1.43-6.27-1.04-.6,.11-.96,.02-1.24-.6-.88-1.92-1.82-3.8-2.74-5.7-.03-.07-.07-.15-.1-.22-.45-1.04-.91-2.07-1.36-3.11,.95,.14,1.93,.21,2.86,.44,1.74,.44,3.46,.97,5.18,1.46Z"/>
        <path class="cls-17" d="M111.92,77.55c-2.62-1.37-5.25-2.74-7.87-4.11-.71-.21-1.43-.43-2.14-.64-.2-.24-.36-.6-.62-.69-1.36-.5-2.75-.93-4.13-1.39,.36-.6,.45-1.79,1.35-1.47,2.26,.82,4.69,1.08,6.87,2.11,2.52,1.19,5,2.49,7.51,3.71,.56,.27,1.19,.41,1.79,.61v.02c.05,.08,.11,.16,.17,.24-.46,.72-.92,1.43-1.38,2.15-.52-.18-1.04-.37-1.56-.55Z"/>
        <path class="cls-6" d="M93.66,93.06c.45,1.04,.91,2.07,1.36,3.11-1.02-.67-1.93-.59-2.83,.28-1.21,1.16-2.63,2.13-3.72,3.38-3.18,3.62-7.27,6.07-11.11,8.84-.37-.38-.75-.76-1.12-1.14,.67-.4,1.38-.76,2.01-1.21,1.32-.93,2.64-1.87,3.89-2.89,.99-.8,1.85-1.74,2.81-2.58,2.81-2.47,4.42-6.15,7.94-7.91,.26,.04,.52,.08,.77,.11Z"/>
        <path class="cls-11" d="M132.11,101.54c-.9-1.76-1.8-3.52-2.71-5.27-.66-1.26-1.34-2.51-2.01-3.76,1.15-1.33,2.29-2.66,3.44-3.99,2.19-1.05,4.36-2.13,6.57-3.13,.69-.31,1.48-.41,2.22-.6,.15,0,.3,.01,.44,.02,.53,.07,1.07,.14,1.6,.21,.15,0,.3,.02,.44,.02,.53,.07,1.07,.14,1.6,.2l.44,.02c.38,.06,.77,.13,1.15,.19,.33,.17,.71,.27,.97,.51,1.47,1.36,2.96,2.7,4.33,4.15,.62,.65,1.14,1.5,1.4,2.36,.88,2.8,1.71,5.62,2.36,8.48,.26,1.13,.07,2.38-.05,3.57-.32,3.19-.71,6.37-1.1,9.55-.05,.44-.22,.87-.41,1.27-1.66,3.47-3.29,6.95-5.05,10.37-.44,.86-1.3,1.54-2.04,2.22-2.25,2.07-4.53,4.1-6.8,6.14-2.26,.46-4.51,.92-6.77,1.39-.16,.05-.33,.09-.49,.14-.15,.02-.3,.03-.45,.05-.11-.14-.18-.34-.32-.41-1.38-.69-2.73-1.47-4.18-2.01-1.79-.67-2.93-1.9-3.72-3.55-.13-.27-.32-.51-.46-.77-.87-1.65-1.96-3.24-2.55-4.98-.53-1.57-.47-3.33-.76-4.99-.45-2.57-.44-5.11,.1-7.68,.44-2.13,.68-4.29,1.01-6.44,.2-.36,.43-.7,.61-1.07,1.01-2.14,2.01-4.28,3.02-6.42,.22,.35,.45,.69,.65,1.05,1.05,1.95,2.09,3.91,3.14,5.86-.13,1.33-.26,2.66-.39,3.98,.51,.84,1.03,1.68,1.54,2.52,.56,.37,1.11,.74,1.67,1.11,.75,1.18,1.49,2.38,2.29,3.53,.15,.22,.59,.36,.88,.34,1.03-.06,2.06-.21,3.1-.33,.29-.17,.66-.28,.86-.52,.81-.99,1.69-1.95,2.3-3.05,1.14-2.04,.86-4.29,.65-6.5,0-.02-.06-.04-.09-.06-.58-.78-1.22-1.52-1.74-2.34-.54-.85-1.23-1.02-2.12-.71-1.59,.56-3.12,.63-4.48-.58-.03-.02-.07-.03-.1-.05Z"/>
        <path class="cls-19" d="M156.66,100.49c.76,.08,1.53,.16,2.29,.23-.37,4.03-.75,8.05-1.13,12.08-.01,.11-.02,.22-.03,.34q-.18,2.34-2.51,2.06c.29-3.01,.58-6.01,.86-9.02,.18-1.9,.34-3.79,.51-5.69Z"/>
        <path class="cls-17" d="M126.9,80.71c2.29,.69,4.58,1.39,6.87,2.08,.21,.06,.42,.14,.63,.21-.82,.45-1.64,.91-2.47,1.36-.76-.23-1.52-.45-2.28-.68-.38-.11-.76-.21-1.14-.32-.54-.89-1.08-1.77-1.62-2.66Z"/>
        <path class="cls-17" d="M125.97,89.66c-.9-1.62-1.79-3.24-2.69-4.85,1.66,.69,3.32,1.37,4.99,2.06-.77,.93-1.53,1.86-2.3,2.79Z"/>
        <path class="cls-19" d="M139.63,84.79c-.74,.19-1.53,.29-2.22,.6-2.21,1-4.38,2.08-6.57,3.13-.18-.18-.35-.37-.53-.55,1.17-.65,2.32-1.33,3.51-1.94,1-.52,2-1.03,3.06-1.41,.9-.33,1.89-.67,2.76,.17Z"/>
        <path class="cls-16" d="M130.3,87.97c.18,.18,.35,.37,.53,.55-1.15,1.33-2.29,2.66-3.44,3.99-.18-.43-.37-.87-.55-1.3,.83-.89,1.64-1.79,2.5-2.65,.26-.26,.64-.4,.97-.59Z"/>
        <path class="cls-21" d="M129.65,83.69c.76,.23,1.52,.45,2.28,.68-.51,.34-1.02,.68-1.74,1.17-.22-.76-.38-1.3-.54-1.85Z"/>
        <path class="cls-19" d="M143.71,85.25c-.53-.07-1.07-.14-1.6-.2,.58-.29,1.15-.5,1.6,.2Z"/>
        <path class="cls-19" d="M141.67,85.02c-.53-.07-1.07-.14-1.6-.21,.58-.29,1.15-.49,1.6,.21Z"/>
        <path class="cls-19" d="M145.3,85.46c-.38-.06-.77-.13-1.15-.19,.38,.06,.77,.13,1.15,.19Z"/>
        <path class="cls-17" d="M134.39,83.01c.06-.08,.12-.15,.18-.23,.03,.07,.05,.14,.08,.21-.09,0-.18,0-.27,.01Z"/>
        <path class="cls-20" d="M127.74,104.21c-1.05-1.96-2.09-3.91-3.14-5.86-.19-.36-.43-.7-.65-1.05-.3-.48-.59-.96-.89-1.44-.23-.5-.47-1-.7-1.5-.74-1.49-1.48-2.99-2.35-4.74-2.18,5.33-4.23,10.36-6.28,15.39-.61,.3-1.23,.6-1.84,.9,.61-1.66,1.23-3.31,1.84-4.97,1.74-4.17,3.49-8.33,5.2-12.51,.11-.28-.08-.68-.17-1.33-6.67,9.66-13.12,19-19.58,28.35-1.2-.88-.22-1.75,.02-2.62,.21-.24,.42-.49,.63-.73,.9-.51,1.31-1.36,1.61-2.28,.02-.07,.03-.14,.03-.21l1.2-1.83,2.69-4.05c1.13-1.67,2.26-3.35,3.39-5.02,.18-.12,.42-.21,.53-.38,1.84-2.74,3.68-5.47,5.48-8.23,.21-.32,.21-.77,.31-1.16,2.61-2.9,2.64-3.14,.7-6.36-.29-.48-.61-.94-.92-1.41-.46-.9-.92-1.8-1.39-2.71,0-.12,0-.23,0-.35,.46-.72,.92-1.43,1.38-2.15-.06-.08-.12-.16-.17-.24,0,0,0-.02,0-.02-.41-.47-.81-.94-1.21-1.42,.53-.67,1.06-1.34,1.59-2.01,.68,1.33,1.31,2.69,2.04,3.99,4.06,7.2,8.15,14.39,12.22,21.59,.7,1.24,1.41,2.49,2.11,3.73-1.46,.16-2.57,.83-3.21,2.2-.09,.18-.32,.29-.49,.43Z"/>
        <path class="cls-3" d="M113.48,74.27c.4,.47,.81,.94,1.21,1.42-.6-.2-1.23-.34-1.79-.61-2.51-1.22-4.98-2.52-7.51-3.71-2.18-1.03-4.61-1.29-6.87-2.11-.9-.32-.99,.87-1.35,1.47-.4-.88-.18-2.13,.52-2.54,.2-.11,.57-.03,.82,.07,1.15,.47,2.29,.96,3.41,1.49,.66,.31,1.2,.32,1.58-.39,.99,.54,1.97,1.11,2.97,1.62,1.91,.96,3.83,1.9,5.75,2.83,.4,.19,.83,.32,1.24,.48Z"/>
        <path class="cls-7" d="M99.19,115.45c6.45-9.35,12.91-18.69,19.58-28.35,.09,.65,.28,1.05,.17,1.33-1.71,4.18-3.46,8.34-5.2,12.51-.68,1.05-1.37,2.09-2.05,3.14-.14,.04-.33,.04-.4,.13-.94,1.38-1.86,2.78-2.79,4.17-.54,.84-1.07,1.67-1.61,2.51-.33,.21-.75,.35-.97,.64-.84,1.13-1.64,2.29-2.4,3.47-.25,.39-.32,.89-.48,1.33-.9,.33-3.23-.21-3.86-.89Z"/>
        <path class="cls-30" d="M100.99,127.03c.02,.23,.04,.45,.05,.68-.08,.76-.15,1.51-.23,2.27-.45,.94-1.32,1.26-2.23,1.52-.16-.06-.33-.12-.49-.17-.24-.54-.49-1.08-.73-1.61-.07-.74-.13-1.48-.2-2.23-.1-1.79-.19-3.58-.29-5.37,.08-.19,.25-.41,.21-.57-.24-.9-.53-1.78-.81-2.66,.91-.79,1.5-1.75,1.56-2.99,.29,.44,.73,.83,.86,1.31,.66,2.45,1.25,4.92,1.86,7.39,.14,.81,.29,1.62,.43,2.43Z"/>
        <path class="cls-3" d="M99.84,112.1c-.21,.24-.42,.49-.63,.73-.11-.03-.22-.04-.32-.08-1.19-.49-2.31-.49-3.31,.45-.23-.39-.45-.77-.68-1.16-.3-.75-.61-1.5-.91-2.25,.02-.06,.03-.12,.03-.19,0,0-.01,0-.01,0,.53-.31,1.06-.61,1.59-.92,0,0,0,0,0,0,.31-.15,.62-.3,.92-.46,.4,.09,.81,.16,1.2,.27,1.26,.36,2.51,.74,3.77,1.11,0,.07-.02,.14-.03,.21-.3,0-.6,0-.9,.01-.91,.03-1.13,.74-.71,2.27Z"/>
        <path class="cls-4" d="M100.99,127.03c-.14-.81-.29-1.62-.43-2.43,1-.29,2-.7,3.05-.25,.31,.13,.56,.41,.84,.62-.33,.02-.67,.04-.96,.06-.08,.12-.15,.18-.16,.25q-.17,1.77-2.34,1.76Z"/>
        <path class="cls-22" d="M108.5,108.39c.93-1.39,1.85-2.79,2.79-4.17,.06-.09,.26-.09,.4-.13-.06,.77-.12,1.54-.19,2.31-.39,.99-.77,1.97-1.16,2.96-.61-.32-1.22-.64-1.84-.97Z"/>
        <path class="cls-21" d="M108.5,108.39c.61,.32,1.22,.64,1.84,.97-.25,.6-.51,1.2-.76,1.79-.89-.09-1.79-.17-2.68-.26,.54-.84,1.07-1.67,1.61-2.51Z"/>
        <path class="cls-6" d="M111.5,106.4c.06-.77,.12-1.54,.19-2.31,.68-1.05,1.36-2.09,2.05-3.14-.61,1.66-1.23,3.31-1.84,4.97-.13,.16-.26,.32-.39,.49Z"/>
        <path class="cls-30" d="M120.33,104.8c-.33,2.15-.56,4.32-1.01,6.44-.54,2.57-.55,5.11-.1,7.68,.29,1.66,.23,3.42,.76,4.99,.59,1.75,1.67,3.33,2.55,4.98,.14,.27,.33,.5,.46,.77,.8,1.65,1.94,2.88,3.72,3.55,1.44,.54,2.79,1.32,4.18,2.01,.14,.07,.22,.27,.32,.41-.49,0-1.05,.17-1.46-.01-2.09-.95-4.15-1.97-6.2-3.01-.34-.17-.64-.52-.84-.85-1.18-1.93-2.49-3.8-3.42-5.84-.67-1.46-.91-3.14-1.2-4.75-.35-1.96-.55-3.95-.81-5.93,.57-3.48,1.14-6.96,1.72-10.44,.44,0,.89,0,1.33,0Z"/>
        <path class="cls-30" d="M131.67,135.59c.16-.05,.33-.09,.49-.14-.16,.05-.33,.09-.49,.14Z"/>
        <path class="cls-5" d="M86.28,123.88c1.42-.48,2.84-.95,4.25-1.43-.08,.21-.15,.42-.24,.63-2.26,5.03-4.52,10.06-6.78,15.08-.44,0-.89,0-1.33,0-.44,.06-.97,0-1.3,.22-1.63,1.1-2,2.64-1.19,4.54,.14,.6,.45,.88,1.13,.99,1.22,.19,2.41,.55,3.61,.84,.22,1.5,.3,1.56,2.24,1.6,.31-.04,.71,.04,.92-.12,1.71-1.4,2.24-3.38,2.49-5.45,.03-.27-.25-.57-.38-.85,1.78-1.54,3.55-3.1,5.36-4.61,.64-.53,1.38-.95,2.07-1.42,.08,1.43,.32,2.88,.2,4.29-.2,2.39-.71,4.75-.94,7.14-.47,4.9-2.9,9.06-4.86,13.4-.09,.2-.19,.43-.34,.58-1.61,1.59-3.23,3.17-4.85,4.75-.1,.04-.19,.08-.29,.13-.45,.03-.9,.06-1.35,.09-.31,.04-.62,.08-.94,.12-.45,.02-.89,.04-1.34,.06-.29-.38-.51-.84-.87-1.14-2.2-1.85-3.21-4.29-3.93-7.01-.97-3.66-.76-7.35-.57-11.01,.13-2.59,1.03-5.14,1.57-7.71,.08-.4,.11-.81,.17-1.22,1.07-2.48,2.15-4.96,3.22-7.43,1.43-1.68,2.85-3.36,4.28-5.04Z"/>
        <path class="cls-13" d="M100.1,139.29c-.7,3.97-1.39,7.95-2.1,12-.63,0-1.19,0-1.74,0,.68-4,1.36-8,2.04-12,.6,0,1.2,0,1.8,0Z"/>
        <path class="cls-1" d="M97.11,133.89c-.69,.47-1.43,.88-2.07,1.42-1.81,1.51-3.58,3.07-5.36,4.61-.08,.09-.16,.18-.23,.27-.3,.23-.61,.45-.91,.68-.88,.69-1.72,1.43-2.65,2.04-.42,.28-1.02,.3-1.53,.43,0-.21-.01-.42-.02-.63,.46-.32,.94-.61,1.37-.97,2.61-2.14,5.22-4.29,7.8-6.46,1.55-1.3,3.06-2.64,4.59-3.96,.16,.06,.33,.12,.49,.17,.14,.18,.27,.36,.41,.54-.39,.38-.77,.75-1.16,1.13-.24,.24-.49,.48-.73,.72Z"/>
        <path class="cls-4" d="M97.84,133.17c.39-.38,.77-.75,1.16-1.13,.22,.14,.45,.29,.67,.43,.14,2.27,.29,4.54,.43,6.81-.6,0-1.2,0-1.8,0-.15-2.04-.31-4.08-.46-6.12Z"/>
        <path class="cls-30" d="M83.75,164.4c.31-.04,.62-.08,.94-.12-.31,.04-.62,.08-.94,.12Z"/>
        <path class="cls-30" d="M86.03,164.19c.1-.04,.19-.08,.29-.13-.1,.04-.19,.08-.29,.13Z"/>
        <path class="cls-25" d="M104.14,133.22c-.73,.76-1.45,1.53-2.21,2.27-.35,.34-.77,.59-1.16,.88-.06-.69-.13-1.39-.19-2.08,.54-.46,1.07-.92,1.61-1.38,.65,.1,1.3,.21,1.95,.31Z"/>
        <path class="cls-15" d="M99.42,56.01c-.69-.48-1.37-.96-2.23-1.55,.06-.17,.12-.59,.36-.87,.82-.98,1.67-1.94,2.56-2.85,.43-.45,.96-.57,1.46,.01,.71,.83,1.45,1.63,2.19,2.43,.3,.32,.66,.59,.94,.93,.19,.23,.36,.55,.36,.83,0,.13-.42,.29-.67,.37-.46,.15-1,.15-1.38,.41-1.16,.82-2.3,1.2-3.58,.29,0,0,0,0,0,0Z"/>
        <path class="cls-10" d="M81.99,128.92c-1.07,2.48-2.15,4.96-3.22,7.43-.31-.08-.62-.17-.93-.25,1.13-2.5,2.26-5.01,3.39-7.51,.25,.11,.51,.22,.76,.33Z"/>
        <path class="cls-19" d="M77.35,108.67c3.84-2.77,7.93-5.22,11.11-8.84,1.1-1.25,2.51-2.22,3.72-3.38,.91-.86,1.81-.95,2.83-.28,.03,.07,.07,.14,.1,.22-.07,.38-.13,.76-.2,1.13-.38,.11-.86,.11-1.13,.35-1.77,1.55-3.49,3.16-5.23,4.74-2.71,2.46-5.21,5.17-8.46,6.99-.53,.3-.89,.88-1.34,1.33-.2-.23-.41-.46-.61-.7-.27-.52-.53-1.04-.8-1.57Z"/>
        <path class="cls-2" d="M93.31,119.31c.45,0,.9,0,1.35,0-.06,.5-.12,1-.18,1.5-.41,.91-.81,1.83-1.22,2.74-.1,.11-.24,.21-.29,.34-1.98,4.4-3.95,8.8-5.9,13.21-.1,.22-.04,.51-.06,.77-.56,.56-1.11,1.11-1.67,1.67-.29-.23-.57-.46-.86-.7,.34-.47,.77-.89,1-1.41,1.94-4.33,3.85-8.67,5.74-13.02,.73-1.68,1.4-3.4,2.1-5.1Z"/>
        <path class="cls-25" d="M93.31,119.31c-.7,1.7-1.36,3.41-2.1,5.1-1.89,4.35-3.81,8.69-5.74,13.02-.23,.52-.66,.94-1,1.41-.3-.16-.6-.31-.9-.47-.02-.07-.04-.14-.07-.21,2.26-5.03,4.52-10.06,6.78-15.08,.09-.2,.16-.42,.24-.63,.42-1.05,.84-2.09,1.26-3.14,.5,0,1.01,0,1.51,0Z"/>
        <path class="cls-10" d="M89.45,117.27c.38,.09,.76,.17,1.14,.26,.35,.8,.87,.39,1.36,.2,1.2,.34,1.19-.93,1.8-1.36,.3-.23,.59-.46,.89-.69,.09,.1,.19,.21,.28,.31-.4,.57-.79,1.14-1.19,1.72-.09,.04-.19,.07-.28,.11,.02,.03,.06,.08,.06,.08,.09-.05,.17-.1,.25-.15,.22-.01,.43-.03,.65-.04l.04,.05c-1.65,1.24-3.34,.54-5.03,.11-.04,0,.01-.39,.03-.59Z"/>
        <path class="cls-10" d="M94.42,117.7c.15-.07,.3-.15,.46-.22l.03,.03c-.15,.08-.3,.16-.45,.24,0,0-.04-.05-.04-.05Z"/>
        <path class="cls-10" d="M94.87,117.48s.08-.06,.12-.09c-.03,.04-.06,.08-.09,.12,0,0-.03-.03-.03-.03Z"/>
        <path class="cls-3" d="M127.74,104.21c.17-.14,.41-.25,.49-.43,.65-1.36,1.75-2.03,3.21-2.2,.22-.01,.45-.02,.67-.04,.03,.02,.07,.02,.1,.05,1.36,1.21,2.89,1.15,4.48,.58,.89-.31,1.58-.14,2.12,.71,.52,.82,1.16,1.56,1.74,2.34-.16,1.35-.26,2.71-.51,4.04-.15,.81-.39,1.65-.8,2.36-.73,1.29-1.61,2.5-2.43,3.74-1.03,.12-2.06,.27-3.1,.33-.29,.02-.73-.12-.88-.34-.8-1.15-1.53-2.35-2.29-3.53,.81,.38,1.59,.97,2.44,1.09,1.12,.16,2.48,.29,3.39-.2,.86-.47,1.26-1.76,1.86-2.69,.06-.29,.17-.58,.17-.87-.01-.92,.3-2.29-.18-2.68-1.33-1.07-2.99-1.74-4.51-2.57h-1.82c-.07,1.06-.14,1.97-.2,2.87-.26,.31-.59,.6-.77,.95-.42,.8-1.05,1.33-1.95,1.21-.57-.07-1.1-.48-1.65-.74,.13-1.33,.26-2.66,.39-3.98Z"/>
        <path class="cls-10" d="M120.33,104.8c-.44,0-.89,0-1.33,0,1.36-2.98,2.71-5.96,4.07-8.94,.3,.48,.59,.96,.89,1.44-1,2.14-2.01,4.29-3.02,6.42-.18,.37-.4,.72-.61,1.07Z"/>
        <path class="cls-21" d="M101.49,109.61c-1.26-.37-2.51-.75-3.77-1.11-.39-.11-.8-.18-1.2-.27-.24-.07-.49-.14-.73-.21-.64-.23-1.27-.46-1.91-.69,.24-.36,.48-.72,.86-1.3-.53-.19-1.09-.6-1.48-.47-1.14,.37-1.93-.09-2.74-.75-.43-.35-.92-.62-1.39-.93,2.1-1.18,3.7-2.87,4.96-4.91,.07-.12,.23-.18,.35-.27,.07,1.06,.1,2.13,.25,3.18,.05,.38,.36,.78,.66,1.05,.66,.58,1.42,1.06,2.1,1.62,.77,.63,1.43,1.43,2.27,1.94,.91,.56,1.97,.87,2.96,1.29l-1.2,1.83Z"/>
        <path class="cls-22" d="M102.69,107.78c-.99-.42-2.05-.74-2.96-1.29-.84-.51-1.5-1.31-2.27-1.94-.68-.56-1.44-1.04-2.1-1.62-.3-.26-.6-.67-.66-1.05-.15-1.05-.18-2.12-.25-3.18,.16-.39,.32-.78,.47-1.17,.07-.38,.13-.76,.2-1.13,.92,1.9,1.86,3.79,2.74,5.7,.28,.61,.64,.7,1.24,.6,2.21-.39,4.25,.27,6.27,1.04-.9,1.35-1.79,2.7-2.69,4.05Z"/>
        <path class="cls-8" d="M84.46,63.27c1,1.3,.84,2.9,1.09,4.39,.04,.22-.19,.52-.36,.74-.03,.04-.43-.08-.53-.22-1-1.39-1.97-2.8-2.95-4.2,.07,0,.17-.02,.22,.01,1.1,.81,1.78,.33,2.29-.72,.08,0,.16,0,.24,0Z"/>
        <path class="cls-16" d="M81.99,128.92c-.25-.11-.51-.22-.76-.33,1.29-1.55,2.55-3.12,3.89-4.62,.19-.21,.76-.08,1.15-.1-1.43,1.68-2.85,3.36-4.28,5.04Z"/>
        <path class="cls-10" d="M95.6,108.68c-.53,.31-1.06,.61-1.59,.92,.53-.31,1.06-.61,1.59-.92Z"/>
        <path class="cls-10" d="M95.79,108.01c.24,.07,.49,.14,.73,.21-.31,.15-.62,.3-.92,.46,.07-.22,.13-.44,.19-.67Z"/>
        <path class="cls-19" d="M93.99,109.79c.3,.75,.61,1.5,.91,2.25-1.01-.19-2.03-.38-3.13-.58,.39-1.06,1.43-1.2,2.22-1.66Z"/>
        <path class="cls-31" d="M113.48,78.1c0,.12,0,.23,0,.35-.72,.02-1.04,.38-1.16,1.1-.17,.99-.46,1.96-.7,2.94-.21,.72-.41,1.43-.64,2.14-1.25,4.01-2.51,8.02-3.76,12.02-.56-.31-1.12-.62-1.69-.93,.23-.32,.56-.6,.69-.95,1.13-3.26,2.25-6.53,3.33-9.81,.6-1.82,1.1-3.67,1.67-5.5,.2-.64,.46-1.27,.69-1.9,.52,.18,1.04,.37,1.56,.55Z"/>
        <path class="cls-3" d="M114.69,75.71c.06,.08,.12,.16,.17,.24-.06-.08-.12-.16-.17-.24Z"/>
        <path class="cls-17" d="M138.26,110.01c-.6,.93-1.01,2.23-1.86,2.69-.91,.49-2.27,.36-3.39,.2-.85-.12-1.63-.71-2.44-1.09l-1.67-1.11c2.47,.3,3.46-1.41,4.37-3.22,.06,0,.12,0,.18,0,1.61,.84,3.21,1.68,4.82,2.52Z"/>
        <path class="cls-15" d="M133.26,107.49c-.91,1.81-1.9,3.52-4.37,3.22-.51-.84-1.03-1.68-1.54-2.52,.55,.26,1.07,.66,1.65,.74,.89,.12,1.52-.41,1.95-1.21,.19-.35,.51-.64,.77-.95,.52,.24,1.03,.48,1.55,.72Z"/>
        <path class="cls-15" d="M136.83,115.36c.82-1.24,1.7-2.45,2.43-3.74,.4-.71,.65-1.55,.8-2.36,.24-1.33,.34-2.69,.51-4.04,.03,.02,.09,.04,.09,.06,.2,2.21,.48,4.47-.65,6.5-.61,1.1-1.5,2.06-2.3,3.05-.2,.25-.57,.35-.86,.52Z"/>
        <path class="cls-13" d="M114.62,88.28c-1.46-1-1.37-2.77-2.08-4.14-.29-.56-.6-1.1-.9-1.65,.24-.98,.52-1.95,.69-2.94,.12-.71,.45-1.08,1.16-1.1,.46,.9,.92,1.8,1.39,2.71-.09,2.38-.18,4.75-.26,7.13Z"/>
        <path class="cls-28" d="M114.62,88.28c.09-2.38,.18-4.75,.26-7.13,.31,.47,.63,.93,.92,1.41,1.94,3.23,1.91,3.46-.7,6.36-.16-.22-.32-.43-.48-.65Z"/>
        <path class="cls-25" d="M85.33,139.53c.56-.56,1.11-1.11,1.67-1.67,.38-.13,.85-.17,1.14-.42,2.88-2.41,5.74-4.86,8.6-7.3,.21-.14,.42-.29,.62-.43,.24,.54,.49,1.08,.73,1.61-1.53,1.32-3.04,2.66-4.59,3.96-2.59,2.17-5.19,4.31-7.8,6.46-.43,.35-.91,.65-1.37,.97,.13-.76,.26-1.51,.39-2.27,.2-.3,.41-.61,.61-.91Z"/>
        <path class="cls-28" d="M97.36,129.71c-.21,.14-.42,.29-.62,.43-.74-1.71-1.44-3.44-2.24-5.12-.27-.56-.82-.99-1.24-1.48,.41-.91,.81-1.83,1.22-2.74,.36,.2,.72,.4,1.08,.6-.27,.19-.54,.38-.95,.66,.85,1.81,1.71,3.62,2.56,5.42,.07,.74,.13,1.48,.2,2.23Z"/>
        <path class="cls-4" d="M97.16,127.49c-.85-1.81-1.71-3.62-2.56-5.42,.41-.28,.68-.47,.95-.66,.44,.24,.88,.48,1.32,.71,.1,1.79,.19,3.58,.29,5.37Z"/>
        <path class="cls-15" d="M84.72,140.45c-.13,.76-.26,1.51-.39,2.27,0,.21,0,.42,.02,.63,.52-.14,1.11-.15,1.53-.43,.93-.61,1.77-1.35,2.65-2.04-.14,.77-.14,1.6-.47,2.28-.35,.73-.62,1.73-1.76,1.71-.63-.01-1.26-.08-1.9-.12-1.2-.29-2.39-.66-3.61-.84-.68-.1-.98-.39-1.13-.99,.29-.04,.76,0,.84-.15,.51-1.07,1.32-.92,2.27-.49,.11-.86,.21-1.59,.3-2.31h0c.54,.16,1.09,.32,1.63,.48Z"/>
        <path class="cls-28" d="M83.09,139.97c-.1,.72-.19,1.45-.3,2.31-.95-.43-1.76-.58-2.27,.49-.07,.15-.55,.1-.84,.15-.81-1.9-.44-3.44,1.19-4.54,.33-.22,.86-.15,1.3-.22-.22,.43-.48,.85-.61,1.31-.03,.09,.45,.38,.74,.48,.24,.08,.52,.02,.79,.02Z"/>
        <path class="cls-28" d="M84.41,144.75c.63,.04,1.26,.1,1.9,.12,1.14,.02,1.41-.98,1.76-1.71,.32-.68,.32-1.52,.47-2.28,.3-.23,.61-.45,.91-.68-.15,.8-.34,1.59-.45,2.4-.23,1.61-1.26,2.69-2.34,3.76-1.94-.04-2.02-.1-2.24-1.6Z"/>
        <path class="cls-15" d="M86.65,146.35c1.08-1.06,2.12-2.15,2.34-3.76,.11-.81,.3-1.6,.45-2.4,.08-.09,.16-.18,.23-.27,.13,.29,.41,.59,.38,.85-.25,2.07-.79,4.05-2.49,5.45-.2,.17-.61,.09-.92,.12Z"/>
        <path class="cls-4" d="M83.09,139.97c-.26,0-.55,.06-.79-.02-.28-.1-.76-.39-.74-.48,.13-.46,.39-.88,.61-1.31,.44,0,.89,0,1.33,0,.03,.07,.05,.14,.07,.21-.47,.02-.84,.09-.6,.73,.1,.27,.08,.59,.12,.88h0Z"/>
        <path class="cls-6" d="M116.45,144.29c.16-.08,.32-.16,.47-.24-.16,.08-.32,.16-.47,.24Z"/>
        <path class="cls-5" d="M93.25,123.55c.42,.49,.97,.91,1.24,1.48,.81,1.68,1.5,3.41,2.24,5.12-2.86,2.44-5.72,4.89-8.6,7.3-.29,.24-.76,.28-1.14,.42,.02-.26-.04-.55,.06-.77,1.96-4.41,3.93-8.81,5.9-13.21,.06-.13,.19-.23,.29-.34Z"/>
        <path class="cls-28" d="M83.09,139.97c-.04-.29-.02-.61-.12-.88-.24-.64,.13-.7,.6-.73,.3,.16,.6,.31,.9,.47,.29,.23,.57,.46,.86,.7-.2,.3-.41,.61-.61,.91-.54-.16-1.09-.32-1.63-.48Z"/>
        <path class="cls-6" d="M93.77,117.74c-.08,.05-.16,.11-.25,.15,0,0-.04-.05-.06-.08,.09-.04,.19-.07,.28-.11,0,0,.03,.04,.03,.04Z"/>
        <path class="cls-15" d="M138.26,110.01c-1.61-.84-3.21-1.68-4.82-2.52,.1-1.2,.19-2.4,.29-3.6,1.53,.83,3.19,1.49,4.51,2.57,.47,.38,.17,1.76,.18,2.68,0,.29-.11,.58-.17,.87Z"/>
        <path class="cls-19" d="M133.73,103.89c-.1,1.2-.19,2.4-.29,3.6-.06,0-.12,0-.18,0-.52-.24-1.03-.48-1.55-.72,.06-.91,.13-1.82,.2-2.87h1.82Z"/>
      </g>
    </g>
  </g>
</svg>